<svg xmlns="http://www.w3.org/2000/svg" viewBox="0 0 1200 340" width="1200" height="340">
  <defs>
    <linearGradient id="scBg" x1="0%" y1="0%" x2="100%" y2="100%">
      <stop offset="0%" stop-color="#060f1e"/>
      <stop offset="100%" stop-color="#0a1628"/>
    </linearGradient>
    <linearGradient id="scBlue" x1="0%" y1="0%" x2="100%" y2="100%">
      <stop offset="0%" stop-color="#0078D7"/>
      <stop offset="100%" stop-color="#00CCCC"/>
    </linearGradient>
    <linearGradient id="scArea" x1="0%" y1="0%" x2="0%" y2="100%">
      <stop offset="0%" stop-color="#0078D7" stop-opacity="0.35"/>
      <stop offset="100%" stop-color="#0078D7" stop-opacity="0"/>
    </linearGradient>
    <linearGradient id="scArea2" x1="0%" y1="0%" x2="0%" y2="100%">
      <stop offset="0%" stop-color="#00CCCC" stop-opacity="0.25"/>
      <stop offset="100%" stop-color="#00CCCC" stop-opacity="0"/>
    </linearGradient>
    <filter id="scGlow">
      <feGaussianBlur stdDeviation="3" result="b"/>
      <feMerge><feMergeNode in="b"/><feMergeNode in="SourceGraphic"/></feMerge>
    </filter>
    <filter id="scSoft">
      <feGaussianBlur stdDeviation="25" result="b"/>
      <feMerge><feMergeNode in="b"/><feMergeNode in="SourceGraphic"/></feMerge>
    </filter>
    <clipPath id="mainClip">
      <rect x="0" y="0" width="1200" height="340" rx="0"/>
    </clipPath>
  </defs>

  <!-- Background -->
  <rect width="1200" height="340" fill="url(#scBg)"/>

  <!-- Ambient blobs -->
  <ellipse cx="300" cy="170" rx="300" ry="180" fill="#0078D7" opacity="0.04" filter="url(#scSoft)"/>
  <ellipse cx="900" cy="170" rx="280" ry="160" fill="#00CCCC" opacity="0.04" filter="url(#scSoft)"/>

  <!-- Grid -->
  <g opacity="0.04" stroke="#0078D7" stroke-width="1">
    <line x1="0" y1="68" x2="1200" y2="68"/>
    <line x1="0" y1="136" x2="1200" y2="136"/>
    <line x1="0" y1="204" x2="1200" y2="204"/>
    <line x1="0" y1="272" x2="1200" y2="272"/>
    <line x1="150" y1="0" x2="150" y2="340"/>
    <line x1="300" y1="0" x2="300" y2="340"/>
    <line x1="450" y1="0" x2="450" y2="340"/>
    <line x1="600" y1="0" x2="600" y2="340"/>
    <line x1="750" y1="0" x2="750" y2="340"/>
    <line x1="900" y1="0" x2="900" y2="340"/>
    <line x1="1050" y1="0" x2="1050" y2="340"/>
  </g>

  <!-- ── Left section: Terminal / Code window ── -->
  <rect x="30" y="30" width="340" height="280" rx="14" fill="#0d2137" stroke="#1e3050" stroke-width="1.5"/>
  <rect x="30" y="30" width="340" height="40" rx="14" fill="#0f2340"/>
  <rect x="30" y="52" width="340" height="18" fill="#0f2340"/>
  <circle cx="52" cy="50" r="6" fill="#ef4444" opacity="0.7"/>
  <circle cx="68" cy="50" r="6" fill="#f59e0b" opacity="0.7"/>
  <circle cx="84" cy="50" r="6" fill="#22c55e" opacity="0.7"/>
  <text x="200" y="54" font-family="Arial" font-size="10" fill="#475569" text-anchor="middle">ziljtech-deploy.sh</text>

  <!-- Code lines -->
  <text x="50" y="90" font-family="Courier New, monospace" font-size="11" fill="#475569">$</text>
  <text x="62" y="90" font-family="Courier New, monospace" font-size="11" fill="#94a3b8">npm run build</text>

  <text x="50" y="108" font-family="Courier New, monospace" font-size="11" fill="#22c55e">✓</text>
  <text x="62" y="108" font-family="Courier New, monospace" font-size="11" fill="#64748b">Build complete (3.2s)</text>

  <text x="50" y="126" font-family="Courier New, monospace" font-size="11" fill="#475569">$</text>
  <text x="62" y="126" font-family="Courier New, monospace" font-size="11" fill="#94a3b8">docker push zilj/api:v2.4</text>

  <text x="50" y="144" font-family="Courier New, monospace" font-size="11" fill="#0078D7">▶</text>
  <text x="62" y="144" font-family="Courier New, monospace" font-size="11" fill="#64748b">Pushing layers... 100%</text>

  <text x="50" y="162" font-family="Courier New, monospace" font-size="11" fill="#22c55e">✓</text>
  <text x="62" y="162" font-family="Courier New, monospace" font-size="11" fill="#64748b">Deployed to Kubernetes</text>

  <text x="50" y="180" font-family="Courier New, monospace" font-size="11" fill="#475569">$</text>
  <text x="62" y="180" font-family="Courier New, monospace" font-size="11" fill="#94a3b8">terraform apply --auto</text>

  <text x="50" y="198" font-family="Courier New, monospace" font-size="11" fill="#22c55e">✓</text>
  <text x="62" y="198" font-family="Courier New, monospace" font-size="11" fill="#64748b">Infrastructure updated</text>

  <text x="50" y="216" font-family="Courier New, monospace" font-size="11" fill="#475569">$</text>
  <text x="62" y="216" font-family="Courier New, monospace" font-size="11" fill="#94a3b8">pytest --cov=app tests/</text>

  <text x="50" y="234" font-family="Courier New, monospace" font-size="11" fill="#22c55e">✓</text>
  <text x="62" y="234" font-family="Courier New, monospace" font-size="11" fill="#64748b">248 passed, 0 failed</text>

  <text x="50" y="252" font-family="Courier New, monospace" font-size="11" fill="#00CCCC">▶</text>
  <text x="62" y="252" font-family="Courier New, monospace" font-size="11" fill="#94a3b8">All systems nominal</text>

  <!-- blinking cursor -->
  <rect x="50" y="266" width="8" height="14" rx="1" fill="#0078D7" opacity="0.9"/>

  <!-- ── Center section: Analytics chart ── -->
  <rect x="395" y="30" width="410" height="280" rx="14" fill="#0d2137" stroke="#1e3050" stroke-width="1.5"/>
  <rect x="395" y="30" width="410" height="40" rx="14" fill="#0f2340"/>
  <rect x="395" y="52" width="410" height="18" fill="#0f2340"/>
  <circle cx="417" cy="50" r="6" fill="#0078D7" opacity="0.8"/>
  <circle cx="433" cy="50" r="6" fill="#00CCCC" opacity="0.6"/>
  <circle cx="449" cy="50" r="6" fill="#1e3050"/>
  <text x="610" y="54" font-family="Arial" font-size="10" fill="#64748b" text-anchor="middle">Revenue &amp; Growth Analytics — 2024</text>

  <!-- Chart area fills -->
  <polygon points="415,270 450,240 490,222 535,205 575,214 615,192 655,178 690,165 725,175 760,155 785,142 785,270"
           fill="url(#scArea)" opacity="0.5"/>
  <polygon points="415,270 450,252 490,244 535,236 575,242 615,228 655,218 690,228 725,238 760,222 785,212 785,270"
           fill="url(#scArea2)" opacity="0.4"/>

  <!-- Blue line -->
  <polyline points="415,240 450,222 490,205 535,214 575,192 615,178 655,165 690,175 725,155 760,142 785,148"
            fill="none" stroke="url(#scBlue)" stroke-width="2.5" stroke-linecap="round" stroke-linejoin="round" filter="url(#scGlow)"/>

  <!-- Cyan line -->
  <polyline points="415,252 450,244 490,236 535,242 575,228 615,218 655,228 690,238 725,222 760,212 785,218"
            fill="none" stroke="#00CCCC" stroke-width="1.8" stroke-linecap="round" stroke-linejoin="round" opacity="0.7"/>

  <!-- Data points -->
  <circle cx="535" cy="214" r="4" fill="#0078D7" filter="url(#scGlow)"/>
  <circle cx="615" cy="192" r="4" fill="#0078D7" filter="url(#scGlow)"/>
  <circle cx="725" cy="155" r="4" fill="#0078D7" filter="url(#scGlow)"/>
  <circle cx="785" cy="148" r="5" fill="url(#scBlue)" filter="url(#scGlow)"/>

  <!-- X axis labels -->
  <line x1="415" y1="272" x2="795" y2="272" stroke="#1e3050" stroke-width="1"/>
  <text x="430" y="285" font-family="Arial" font-size="9" fill="#334155">Jan</text>
  <text x="490" y="285" font-family="Arial" font-size="9" fill="#334155">Mar</text>
  <text x="552" y="285" font-family="Arial" font-size="9" fill="#334155">May</text>
  <text x="614" y="285" font-family="Arial" font-size="9" fill="#334155">Jul</text>
  <text x="674" y="285" font-family="Arial" font-size="9" fill="#334155">Sep</text>
  <text x="734" y="285" font-family="Arial" font-size="9" fill="#334155">Nov</text>

  <!-- Stats inside chart -->
  <rect x="413" y="82" width="80" height="50" rx="10" fill="#0A192F" stroke="#1e3050" stroke-width="1"/>
  <text x="453" y="100" font-family="Arial" font-size="8" fill="#64748b" text-anchor="middle">Revenue</text>
  <text x="453" y="118" font-family="Arial" font-size="17" font-weight="800" fill="url(#scBlue)" text-anchor="middle">₹2.4M</text>

  <rect x="507" y="82" width="80" height="50" rx="10" fill="#0A192F" stroke="#1e3050" stroke-width="1"/>
  <text x="547" y="100" font-family="Arial" font-size="8" fill="#64748b" text-anchor="middle">Growth</text>
  <text x="547" y="118" font-family="Arial" font-size="17" font-weight="800" fill="#00CCCC" text-anchor="middle">+38%</text>

  <rect x="601" y="82" width="80" height="50" rx="10" fill="#0A192F" stroke="#1e3050" stroke-width="1"/>
  <text x="641" y="100" font-family="Arial" font-size="8" fill="#64748b" text-anchor="middle">Projects</text>
  <text x="641" y="118" font-family="Arial" font-size="17" font-weight="800" fill="url(#scBlue)" text-anchor="middle">50+</text>

  <rect x="695" y="82" width="92" height="50" rx="10" fill="#0A192F" stroke="#1e3050" stroke-width="1"/>
  <text x="741" y="100" font-family="Arial" font-size="8" fill="#64748b" text-anchor="middle">NPS Score</text>
  <text x="741" y="118" font-family="Arial" font-size="17" font-weight="800" fill="#22c55e" text-anchor="middle">92/100</text>

  <!-- Legend -->
  <rect x="415" y="297" width="8" height="8" rx="2" fill="url(#scBlue)"/>
  <text x="428" y="305" font-family="Arial" font-size="9" fill="#94a3b8">Revenue</text>
  <rect x="500" y="297" width="8" height="8" rx="2" fill="#00CCCC" opacity="0.7"/>
  <text x="513" y="305" font-family="Arial" font-size="9" fill="#94a3b8">Satisfaction Index</text>

  <!-- ── Right section: Service Status ── -->
  <rect x="830" y="30" width="340" height="280" rx="14" fill="#0d2137" stroke="#1e3050" stroke-width="1.5"/>
  <rect x="830" y="30" width="340" height="40" rx="14" fill="#0f2340"/>
  <rect x="830" y="52" width="340" height="18" fill="#0f2340"/>
  <circle cx="852" cy="50" r="6" fill="#0078D7" opacity="0.8"/>
  <circle cx="868" cy="50" r="6" fill="#00CCCC" opacity="0.6"/>
  <text x="1000" y="54" font-family="Arial" font-size="10" fill="#64748b" text-anchor="middle">System Status — All Services</text>

  <!-- Service status rows -->
  <g font-family="Arial" font-size="11">
    <!-- Row 1 -->
    <circle cx="852" cy="90" r="5" fill="#22c55e" filter="url(#scGlow)"/>
    <text x="866" y="94" fill="#F8F9FA">API Gateway</text>
    <text x="1158" y="94" fill="#22c55e" text-anchor="end">99.99%</text>
    <rect x="866" y="99" width="284" height="4" rx="2" fill="#1e3050"/>
    <rect x="866" y="99" width="280" height="4" rx="2" fill="#22c55e" opacity="0.7"/>

    <!-- Row 2 -->
    <circle cx="852" cy="122" r="5" fill="#22c55e" filter="url(#scGlow)"/>
    <text x="866" y="126" fill="#F8F9FA">Cloud Storage</text>
    <text x="1158" y="126" fill="#22c55e" text-anchor="end">100%</text>
    <rect x="866" y="131" width="284" height="4" rx="2" fill="#1e3050"/>
    <rect x="866" y="131" width="284" height="4" rx="2" fill="#22c55e" opacity="0.7"/>

    <!-- Row 3 -->
    <circle cx="852" cy="154" r="5" fill="#22c55e" filter="url(#scGlow)"/>
    <text x="866" y="158" fill="#F8F9FA">AI Engine</text>
    <text x="1158" y="158" fill="#22c55e" text-anchor="end">99.97%</text>
    <rect x="866" y="163" width="284" height="4" rx="2" fill="#1e3050"/>
    <rect x="866" y="163" width="278" height="4" rx="2" fill="#0078D7" opacity="0.8"/>

    <!-- Row 4 -->
    <circle cx="852" cy="186" r="5" fill="#f59e0b" filter="url(#scGlow)"/>
    <text x="866" y="190" fill="#F8F9FA">Auth Service</text>
    <text x="1158" y="190" fill="#f59e0b" text-anchor="end">98.2%</text>
    <rect x="866" y="195" width="284" height="4" rx="2" fill="#1e3050"/>
    <rect x="866" y="195" width="255" height="4" rx="2" fill="#f59e0b" opacity="0.8"/>

    <!-- Row 5 -->
    <circle cx="852" cy="218" r="5" fill="#22c55e" filter="url(#scGlow)"/>
    <text x="866" y="222" fill="#F8F9FA">CDN Network</text>
    <text x="1158" y="222" fill="#22c55e" text-anchor="end">99.95%</text>
    <rect x="866" y="227" width="284" height="4" rx="2" fill="#1e3050"/>
    <rect x="866" y="227" width="280" height="4" rx="2" fill="#00CCCC" opacity="0.7"/>

    <!-- Row 6 -->
    <circle cx="852" cy="250" r="5" fill="#22c55e" filter="url(#scGlow)"/>
    <text x="866" y="254" fill="#F8F9FA">Security Firewall</text>
    <text x="1158" y="254" fill="#22c55e" text-anchor="end">100%</text>
    <rect x="866" y="259" width="284" height="4" rx="2" fill="#1e3050"/>
    <rect x="866" y="259" width="284" height="4" rx="2" fill="#22c55e" opacity="0.7"/>
  </g>

  <!-- Overall status badge -->
  <rect x="848" y="284" width="304" height="22" rx="8" fill="rgba(34,197,94,0.1)" stroke="rgba(34,197,94,0.3)" stroke-width="1"/>
  <circle cx="864" cy="295" r="5" fill="#22c55e" filter="url(#scGlow)"/>
  <text x="875" y="299" font-family="Arial" font-size="10" fill="#22c55e">All Systems Operational  ·  Last checked: 1 min ago</text>
</svg>
